Poster: 
http://imgh.us/DIWtZxm7.jpeg

Info:

Format : AVI
Format/Info : Audio Video Interleave
File size : 700 MiB
Duration : 1h 34mn
Overall bit rate mode : Variable
Overall bit rate : 1 040 Kbps
Writing application : VirtualDubMod 1.5.10.2 (build 2540/release)
Writing library : VirtualDubMod build 2540/release

Video
ID : 0
Format : MPEG-4 Visual
Format profile : Advanced Simple@L5
Format settings, BVOP : 2
Format settings, QPel : No
Format settings, GMC : No warppoints
Format settings, Matrix : Default (H.263)
Muxing mode : Packed bitstream
Codec ID : XVID
Codec ID/Hint : XviD
Duration : 1h 34mn
Bit rate : 896 Kbps
Width : 640 pixels
Height : 272 pixels
Display aspect ratio : 2.35:1
Frame rate : 25.000 fps
Color space : YUV
Chroma subsampling : 4:2:0
Bit depth : 8 bits
Scan type : Progressive
Compression mode : Lossy
Bits/(Pixel*Frame) : 0.206
Stream size : 603 MiB (86%)
Writing library : XviD 1.2.1 (UTC 2008-12-04)

Audio
ID : 1
Format : MPEG Audio
Format version : Version 1
Format profile : Layer 3
Mode : Joint stereo
Mode extension : MS Stereo
Codec ID : 55
Codec ID/Hint : MP3
Duration : 1h 34mn
Bit rate mode : Variable
Bit rate : 128 Kbps
Channel(s) : 2 channels
Sampling rate : 48.0 KHz
Compression mode : Lossy
Stream size : 88.3 MiB (13%)
Alignment : Aligned on interleaves
Interleave, duration : 24 ms (0.60 video frame)
Interleave, preload duration : 165 ms
Writing library : LAME3.90.
Encoding settings : -m j -V 4 -q 2 -lowpass 17.6 --abr 128

SCREENS: 
http://imgh.us/Wild_Bill_2012_LIMITED_DVDRip_XviD-DoNE-005.jpg 
http://imgh.us/Wild_Bill_2012_LIMITED_DVDRip_XviD-DoNE-009.jpg 
http://imgh.us/Wild_Bill_2012_LIMITED_DVDRip_XviD-DoNE-010.jpg 
http://imgh.us/Wild_Bill_2012_LIMITED_DVDRip_XviD-DoNE-017.jpg 
http://imgh.us/Wild_Bill_2012_LIMITED_DVDRip_XviD-DoNE-020.jpg